<svg width="80" height="80" fill="none" xmlns="http://www.w3.org/2000/svg"><circle cx="40.645" cy="39.355" fill="#09D743" r="29.032"/><circle cx="40.645" cy="39.355" fill="#09D743" r="29.032"/><circle cx="40" cy="40" r="39.5" stroke="#09D743"/><circle cx="40" cy="40" r="39.5" stroke="#09D743"/><path d="M50.323 38.708h2.58c0-6.619-4.997-11.611-11.626-11.611v2.58c5.242 0 9.046 3.798 9.046 9.031z" fill="#fff"/><path d="M41.29 34.839c2.714 0 3.871 1.157 3.871 3.87h2.58c0-4.16-2.29-6.45-6.45-6.45v2.58zm4.416 7.023a1.292 1.292 0 00-1.795.055l-3.088 3.176c-.743-.142-2.237-.608-3.775-2.142-1.538-1.54-2.004-3.037-2.142-3.776l3.173-3.088a1.29 1.29 0 00.055-1.795l-4.768-5.243a1.29 1.29 0 00-1.794-.112l-2.8 2.401a1.29 1.29 0 00-.375.837c-.019.323-.388 7.964 5.537 13.892 5.17 5.168 11.644 5.546 13.427 5.546.26 0 .42-.008.464-.01.316-.018.612-.151.836-.376l2.4-2.801a1.291 1.291 0 00-.111-1.795l-5.244-4.769z" fill="#fff"/></svg>