<svg width="23" height="23" fill="none" xmlns="http://www.w3.org/2000/svg"><path d="M15.813 5.27a1.916 1.916 0 100-3.832 1.916 1.916 0 000 3.833zm-3.45 13.322l.958-4.217 2.012 1.917v5.75h1.917v-7.188l-2.012-1.916.575-2.876a6.993 6.993 0 005.27 2.396v-1.916a4.709 4.709 0 01-4.12-2.3l-.959-1.534c-.345-.575-.958-.958-1.629-.958-.287 0-.48.096-.767.096L8.625 7.954v4.504h1.917V9.2l1.725-.67-1.534 7.762-4.695-.959-.384 1.917 6.709 1.342zm-8.53-9.967a.958.958 0 010-1.917h2.875v1.917H3.833zm.959-3.833a.958.958 0 010-1.917h4.791v1.917H4.792zm-1.917 7.666a.958.958 0 110-1.916h3.833v1.916H2.875z" fill="#3E3E3E"/></svg>