<svg width="14" height="14" fill="none" xmlns="http://www.w3.org/2000/svg"><g clip-path="url(#clip0_2_224)" fill="#3E3E3E"><path d="M7 9.333a.437.437 0 01-.317-.135L3.621 5.99a.438.438 0 01.316-.74H5.54V1.896a.73.73 0 01.73-.73h1.457a.73.73 0 01.73.73V5.25h1.604c.384 0 .581.462.316.74L7.315 9.198A.437.437 0 017 9.333zm5.98 3.5H1.02c-.562 0-1.02-.458-1.02-1.02v-.292c0-.563.458-1.021 1.02-1.021h11.96c.562 0 1.02.458 1.02 1.02v.293c0 .562-.458 1.02-1.02 1.02z"/></g><defs><clipPath id="clip0_2_224"><path fill="#fff" d="M0 0h14v14H0z"/></clipPath></defs></svg>