<svg width="22" height="31" fill="none" xmlns="http://www.w3.org/2000/svg"><path d="M14.704 13.911c0 .25-.068.488-.188.664-.12.177-.282.276-.451.276H7.672c-.17 0-.332-.1-.452-.276a1.198 1.198 0 01-.187-.664c0-.249.067-.488.187-.664.12-.176.282-.275.452-.275h6.393c.169 0 .332.099.452.275.12.176.187.415.187.664zm-.64 2.818H7.673c-.17 0-.332.099-.452.275-.12.176-.187.415-.187.664 0 .25.067.488.187.664.12.176.282.275.452.275h6.393c.169 0 .332-.099.452-.275.12-.176.187-.415.187-.664 0-.249-.068-.488-.188-.664-.12-.176-.282-.275-.451-.275zm7.032-3.757v2.818c0 .996-.27 1.95-.75 2.655-.479.704-1.129 1.1-1.807 1.102h-.415c-.524 1.688-1.539 3.17-3.007 4.368a12.473 12.473 0 01-3.989 2.148.866.866 0 01-.52 0 12.475 12.475 0 01-3.989-2.148c-1.468-1.199-2.482-2.68-3.007-4.368h-.415c-.678-.002-1.328-.398-1.807-1.102-.48-.704-.75-1.66-.75-2.655v-2.818c0-.996.27-1.951.75-2.655.48-.705 1.13-1.1 1.807-1.102h.082c.065-.254.167-.484.298-.676.13-.19.288-.338.462-.431l6.392-3.416a.902.902 0 01.874 0l6.393 3.416c.173.093.33.24.462.431.13.192.232.422.297.676h.082c.678.001 1.328.397 1.807 1.102.48.704.75 1.659.75 2.655zM3.241 17.668a10.13 10.13 0 01-.044-.94v-5.634c-.339 0-.664.198-.904.55-.24.352-.374.83-.374 1.328v2.818c0 .498.135.975.374 1.327.24.352.565.55.904.551h.044zm14.02-.94V9.874l-6.393-3.415-6.392 3.415v6.856c0 5.372 5.74 7.294 6.395 7.496.65-.202 6.39-2.124 6.39-7.496zm2.557-3.756c0-.498-.135-.976-.375-1.328-.24-.352-.565-.55-.904-.55v5.635c0 .314-.015.628-.044.94h.044c.34-.001.664-.2.904-.552.24-.352.374-.83.375-1.327v-2.818z" fill="#fff"/></svg>