<svg width="30" height="30" fill="none" xmlns="http://www.w3.org/2000/svg"><path d="M26.244 8.625a1.248 1.248 0 00-.685-.994l-10-5a1.25 1.25 0 00-1.119 0l-10 5a1.253 1.253 0 00-.684.994c-.014.134-1.201 13.459 10.736 18.767.162.073.334.108.508.108s.346-.035.508-.108C27.444 22.084 26.258 8.76 26.244 8.625zM15 24.871c-8.461-4.09-8.861-12.818-8.793-15.327L15 5.148l8.786 4.393c.046 2.486-.41 11.273-8.786 15.33z" fill="#fff"/><path d="M13.75 15.732l-2.866-2.866-1.768 1.768 4.634 4.633 7.134-7.133-1.768-1.768-5.366 5.367z" fill="#fff"/><path d="M15 2.5C8.108 2.5 2.5 8.107 2.5 15c0 6.892 5.608 12.5 12.5 12.5S27.5 21.892 27.5 15c0-6.893-5.608-12.5-12.5-12.5zM15 25C9.486 25 5 20.514 5 15S9.486 5 15 5s10 4.486 10 10-4.486 10-10 10z" fill="#09D743"/><path d="M12.499 16.984l-2.874-2.869-1.765 1.77 4.641 4.631 8.383-8.382-1.768-1.768-6.617 6.618z" fill="#09D743"/></svg>