<svg width="18" height="13" fill="none" xmlns="http://www.w3.org/2000/svg"><path d="M4.091 5.184c-.273 0-.503-.25-.378-.492a.5.5 0 00.032-.068c.103-.256.258-.48.412-.707.133-.252.367-.423.539-.64.18-.21.426-.35.621-.524.191-.183.441-.274.64-.402.209-.116.39-.243.584-.304l.484-.193a.521.521 0 00.31-.615L7.152.533A.563.563 0 006.48.125c-.171.042-.38.09-.618.149-.243.043-.503.162-.792.27-.285.124-.615.207-.922.405-.309.19-.665.348-.98.601-.303.261-.67.488-.941.82-.297.312-.589.638-.816 1.01-.263.354-.442.743-.63 1.128-.17.385-.308.778-.42 1.16a10.17 10.17 0 00-.345 2.116 10.47 10.47 0 00.026 1.517 6.43 6.43 0 00.077.602.012.012 0 00.014.01.012.012 0 01.013.008C.54 11.681 2.155 13 4.091 13c2.23 0 4.038-1.75 4.038-3.908S6.321 5.184 4.091 5.184zm9.871 0c-.273 0-.503-.25-.378-.492l.01-.018a.503.503 0 00.023-.05c.102-.256.257-.48.41-.707.133-.252.368-.423.54-.64.18-.21.426-.35.62-.524.192-.183.442-.274.641-.402.209-.116.39-.243.584-.304l.483-.193a.521.521 0 00.31-.615l-.182-.706a.563.563 0 00-.673-.408c-.172.042-.38.09-.619.149-.243.043-.502.162-.79.27-.285.125-.617.207-.923.406-.31.19-.665.347-.98.601-.304.261-.67.488-.942.82-.296.31-.588.637-.815 1.009-.263.354-.442.743-.63 1.128-.17.385-.308.778-.42 1.16a10.169 10.169 0 00-.345 2.116 10.47 10.47 0 00.025 1.517 6.428 6.428 0 00.078.602.011.011 0 00.013.01.012.012 0 01.014.008c.395 1.76 2.01 3.079 3.946 3.079C16.192 13 18 11.25 18 9.092s-1.808-3.908-4.038-3.908z" fill="#3E3E3E"/></svg>